<svg aria-hidden="true" style="position: absolute; width: 0; height: 0; overflow: hidden;" version="1.1" xmlns="http://www.w3.org/2000/svg" xmlns:xlink="http://www.w3.org/1999/xlink">
<defs>
<symbol id="icon-vector--stroke" viewBox="0 0 56 32">
<path d="M54.12 1.88c0.542 0.543 0.877 1.292 0.877 2.12s-0.335 1.577-0.877 2.12l-24 24c-0.543 0.542-1.292 0.877-2.12 0.877s-1.577-0.335-2.12-0.877l-24-24c-0.499-0.534-0.805-1.254-0.805-2.045 0-1.657 1.343-3 3-3 0.791 0 1.511 0.306 2.047 0.807l-0.002-0.002 21.88 21.88 21.88-21.88c0.543-0.542 1.292-0.877 2.12-0.877s1.577 0.335 2.12 0.877l-0-0z"></path>
</symbol>
<symbol id="icon-facebook" viewBox="0 0 16 32">
<path d="M10.305 31.651v-15.828h4.368l0.579-5.455h-4.947l0.007-2.729c0-1.423 0.135-2.185 2.177-2.185h2.732v-5.455h-4.369c-5.248 0-7.095 2.646-7.095 7.095v3.274h-3.273v5.455h3.273v15.825h6.548z"></path>
</symbol>
<symbol id="icon-instagram" viewBox="0 0 32 32">
<path d="M9.604 0.579c1.654-0.076 2.183-0.095 6.396-0.095h-0.004c4.215 0 4.742 0.019 6.397 0.095 1.651 0.076 2.778 0.337 3.767 0.72 1.076 0.41 1.993 1.019 2.748 1.788l0.001 0.001c0.769 0.756 1.378 1.673 1.771 2.697l0.018 0.052c0.383 0.986 0.644 2.113 0.721 3.766 0.074 1.655 0.095 2.183 0.095 6.397s-0.020 4.742-0.095 6.397c-0.077 1.651-0.339 2.778-0.72 3.764-0.412 1.076-1.022 1.993-1.791 2.748l-0.001 0.001c-0.755 0.769-1.671 1.378-2.694 1.772l-0.052 0.018c-0.986 0.385-2.115 0.646-3.767 0.721-1.655 0.076-2.182 0.095-6.396 0.095s-4.742-0.019-6.397-0.095c-1.651-0.076-2.778-0.336-3.767-0.72-1.075-0.412-1.991-1.021-2.745-1.789l-0.001-0.001c-0.769-0.756-1.378-1.673-1.772-2.697l-0.018-0.052c-0.383-0.986-0.644-2.113-0.721-3.766-0.074-1.654-0.093-2.182-0.093-6.396s0.020-4.742 0.095-6.397c0.073-1.652 0.335-2.778 0.72-3.767 0.412-1.075 1.021-1.992 1.789-2.747l0.001-0.001c0.756-0.77 1.673-1.378 2.697-1.772l0.052-0.018c0.986-0.383 2.113-0.644 3.766-0.72zM15.485 3.28h-0.876v-0.003c-2.892 0.003-3.447 0.022-4.877 0.087-1.513 0.070-2.335 0.321-2.88 0.535-0.7 0.263-1.297 0.658-1.785 1.16l-0.001 0.001c-0.503 0.489-0.898 1.085-1.15 1.752l-0.011 0.033c-0.212 0.547-0.465 1.367-0.534 2.88-0.074 1.636-0.089 2.124-0.089 6.268s0.015 4.634 0.087 6.269c0.070 1.513 0.323 2.335 0.535 2.88 0.282 0.726 0.618 1.241 1.161 1.785 0.544 0.543 1.062 0.879 1.785 1.159 0.547 0.212 1.367 0.465 2.88 0.535 1.636 0.074 2.128 0.092 6.271 0.092s4.634-0.017 6.269-0.092c1.513-0.068 2.335-0.32 2.88-0.534 0.7-0.262 1.296-0.658 1.784-1.16l0.001-0.001c0.543-0.543 0.879-1.059 1.161-1.782 0.212-0.547 0.465-1.367 0.534-2.88 0.074-1.636 0.090-2.128 0.090-6.269 0-4.14-0.015-4.631-0.090-6.266-0.068-1.513-0.321-2.335-0.534-2.88-0.263-0.7-0.658-1.296-1.16-1.784l-0.001-0.001c-0.488-0.503-1.084-0.898-1.75-1.15l-0.033-0.011c-0.547-0.212-1.367-0.465-2.88-0.534-1.636-0.074-2.128-0.089-6.269-0.089h-0.519zM8.032 16c0-4.401 3.567-7.968 7.968-7.968s7.968 3.567 7.968 7.968v0c0 4.401-3.567 7.968-7.968 7.968s-7.968-3.567-7.968-7.968v0zM21.172 16c0-0.026 0.001-0.056 0.001-0.087 0-2.857-2.316-5.172-5.172-5.172s-5.172 2.316-5.172 5.172c0 0.030 0 0.061 0.001 0.091l-0-0.005c0.069 2.803 2.357 5.050 5.171 5.050s5.102-2.246 5.171-5.043l0-0.006zM22.42 7.718c0-1.028 0.834-1.862 1.862-1.862s1.862 0.834 1.862 1.862v0c0 1.028-0.834 1.862-1.862 1.862s-1.862-0.834-1.862-1.862v0z"></path>
</symbol>
<symbol id="icon-OBJECTS" viewBox="0 0 53 32">
<path fill="#44c697" style="fill: var(--color1, #44c697)" d="M13.582 12.582h24.128v-3.405h-24.128v-5.745h24.128v-3.405h-25.986c-0.864 0-1.57 0.702-1.57 1.559v16.767h3.428v-5.771z"></path>
<path fill="#1e2e36" style="fill: var(--color2, #1e2e36)" d="M41.636 0h-1.885v18.327h3.428v-16.767c0.026-0.858-0.68-1.56-1.544-1.56z"></path>
<path fill="#1e2e36" style="fill: var(--color2, #1e2e36)" d="M45.901 11.932v9.099h-38.469v-9.099h-5.469c-0.003 0-0.006-0-0.009-0-1.078 0-1.952 0.873-1.954 1.95v5.173c0 1.092 0.89 1.95 1.963 1.95h1.256l0.55 6.394v4.601h1.413l1.649-4.601h39.673l1.649 4.601h1.413v-4.601l0.55-6.395h1.256c1.099 0 1.963-0.884 1.963-1.95v-5.172c0-1.092-0.89-1.95-1.963-1.95h-5.469z"></path>
</symbol>
<symbol id="icon-shopping-cart" viewBox="0 0 31 32">
<path d="M11.613 27.291c-0.178 0-0.322 0.144-0.322 0.322s0.144 0.322 0.322 0.322v0c0.178 0 0.323-0.144 0.323-0.323s-0.144-0.323-0.323-0.323v0zM9.354 27.613c0-1.247 1.011-2.259 2.259-2.259s2.259 1.011 2.259 2.259v0c0 1.247-1.011 2.259-2.259 2.259s-2.259-1.011-2.259-2.259v0zM25.806 27.291c-0.178 0-0.322 0.144-0.322 0.322s0.144 0.322 0.322 0.322v0c0.178 0 0.323-0.144 0.323-0.323s-0.144-0.323-0.323-0.323v0zM23.548 27.613c0-1.247 1.011-2.259 2.259-2.259s2.259 1.011 2.259 2.259v0c-0.027 1.226-1.028 2.21-2.258 2.21s-2.231-0.984-2.258-2.208l-0-0.003zM0.323 1.806c0-0.535 0.434-0.968 0.967-0.968h5.161c0.461 0 0.859 0.326 0.95 0.778l1.135 5.673h21.141c0.534 0.001 0.967 0.434 0.967 0.968 0 0.064-0.006 0.127-0.018 0.188l0.001-0.006-2.065 10.833c-0.334 1.64-1.765 2.857-3.48 2.857-0.021 0-0.041-0-0.062-0.001l0.003 0h-12.525c-0.017 0-0.037 0-0.057 0-1.715 0-3.145-1.216-3.477-2.833l-0.004-0.023-2.158-10.778c-0.006-0.024-0.013-0.055-0.018-0.086l-0.001-0.005-1.125-5.63h-4.369c-0.534 0-0.968-0.433-0.968-0.967v-0zM8.924 9.226l1.935 9.669c0.152 0.746 0.803 1.299 1.582 1.299 0.011 0 0.021-0 0.031-0l-0.002 0h12.579c0.009 0 0.020 0 0.031 0 0.778 0 1.428-0.552 1.579-1.285l0.002-0.010v-0.003l1.845-9.669h-19.584z"></path>
</symbol>
  <symbol xmlns="http://www.w3.org/2000/svg" fill="none" viewBox="0 0 24 24" id="smartphone">
    <path stroke="#1E2E36" stroke-linecap="round" stroke-linejoin="round" stroke-width="1.5" d="M17 2H7a2 2 0 0 0-2 2v16a2 2 0 0 0 2 2h10a2 2 0 0 0 2-2V4a2 2 0 0 0-2-2ZM12 18h.01"></path>
  </symbol>
<symbol id="icon-telegram" viewBox="0 0 37 32">
<path d="M14.609 20.327v-0.002l15.618-14.095c0.685-0.608-0.15-0.904-1.059-0.354l-19.276 12.162-8.327-2.599c-1.799-0.551-1.812-1.785 0.404-2.675l32.443-12.51c1.482-0.674 2.914 0.355 2.348 2.624l-5.526 26.038c-0.387 1.851-1.504 2.294-3.053 1.438l-8.418-6.218-4.083 3.971c-0.453 0.44-0.827 0.805-1.647 0.805l0.573-8.586z"></path>
</symbol>
<symbol id="icon-arrow_left" viewBox="0 0 20 32">
<path d="M1.674 16.569c0-0.517 0.197-1.034 0.578-1.428l12.111-12.426c0.353-0.366 0.847-0.593 1.394-0.593s1.042 0.227 1.394 0.592l0.001 0.001c0.357 0.37 0.577 0.874 0.577 1.43s-0.22 1.060-0.578 1.431l0.001-0.001-10.715 10.993 10.715 10.993c0.358 0.37 0.578 0.875 0.578 1.431s-0.221 1.061-0.579 1.432l0.001-0.001c-0.353 0.366-0.847 0.593-1.394 0.593s-1.042-0.227-1.394-0.592l-0.001-0.001-12.111-12.426c-0.356-0.367-0.576-0.869-0.576-1.422 0-0.002 0-0.004 0-0.006v0z"></path>
</symbol>
<symbol id="icon-arrow_right" viewBox="0 0 17 32">
<path fill="#fff" style="fill: var(--color1, #fff)" d="M15.712 16.569c0 0.003 0 0.006 0 0.009 0 0.551-0.216 1.052-0.567 1.422l0.001-0.001-11.847 12.426c-0.342 0.366-0.827 0.594-1.366 0.594s-1.024-0.228-1.365-0.593l-0.001-0.001c-0.351-0.373-0.566-0.877-0.566-1.431s0.215-1.058 0.567-1.432l-0.001 0.001 10.486-10.993-10.486-10.993c-0.35-0.373-0.565-0.877-0.565-1.43s0.215-1.057 0.566-1.431l-0.001 0.001c0.342-0.365 0.827-0.593 1.365-0.593s1.023 0.227 1.364 0.591l0.001 0.001 11.852 12.423c0.377 0.394 0.564 0.913 0.564 1.43z"></path>
</symbol>
</defs>
</svg>
